<?xml version="1.0" encoding="UTF-8" standalone="no"?>
<!-- Created with Inkscape (http://www.inkscape.org/) -->

<svg
   width="1920"
   height="1080"
   viewBox="0 0 1920 1080"
   version="1.1"
   id="svg1"
   inkscape:version="1.4.2 (ebf0e940d0, 2025-05-08)"
   sodipodi:docname="bg.svg"
   inkscape:export-filename="bg.png"
   inkscape:export-xdpi="96"
   inkscape:export-ydpi="96"
   xmlns:inkscape="http://www.inkscape.org/namespaces/inkscape"
   xmlns:sodipodi="http://sodipodi.sourceforge.net/DTD/sodipodi-0.dtd"
   xmlns:xlink="http://www.w3.org/1999/xlink"
   xmlns="http://www.w3.org/2000/svg"
   xmlns:svg="http://www.w3.org/2000/svg">
  <sodipodi:namedview
     id="namedview1"
     pagecolor="#000000"
     bordercolor="#000000"
     borderopacity="0.25"
     inkscape:showpageshadow="2"
     inkscape:pageopacity="0.0"
     inkscape:pagecheckerboard="false"
     inkscape:deskcolor="#393939"
     inkscape:document-units="px"
     labelstyle="default"
     inkscape:zoom="0.70710678"
     inkscape:cx="1513.2085"
     inkscape:cy="526.79455"
     inkscape:window-width="1920"
     inkscape:window-height="1056"
     inkscape:window-x="0"
     inkscape:window-y="0"
     inkscape:window-maximized="1"
     inkscape:current-layer="layer1"
     inkscape:export-bgcolor="#000000ff" />
  <defs
     id="defs1">
    <linearGradient
       id="linearGradient186"
       inkscape:collect="always">
      <stop
         style="stop-color:#00004d;stop-opacity:1;"
         offset="0"
         id="stop185" />
      <stop
         style="stop-color:#000000;stop-opacity:1;"
         offset="1"
         id="stop186" />
    </linearGradient>
    <pattern
       inkscape:collect="always"
       xlink:href="#FloorTiles"
       preserveAspectRatio="xMidYMid"
       id="pattern185"
       patternTransform="matrix(1.3731675,-0.36793913,0.36793913,1.3731675,155.93949,-750.97547)"
       x="0"
       y="0" />
    <pattern
       patternUnits="userSpaceOnUse"
       width="90"
       height="90"
       id="FloorTiles"
       preserveAspectRatio="xMidYMid"
       patternTransform="rotate(-45)"
       style="fill:#000326"
       inkscape:label="Floor tiles"
       inkscape:collect="always"
       inkscape:isstock="true">
      <path
         id="rect1"
         style="stroke-width:5;stroke-miterlimit:10"
         d="M 0,0 V 1 H 15 V 15 H 0 v 1 44 0.5 0.5 14 1 h 30 v 14 h 1 V 76 h 14 v 14 h 1 V 61 h 14 v 29 h 1 V 46 h 14 v 29 0.5 0.5 14 h 1 V 76 H 90 V 75 H 76 V 31 H 90 V 30 H 75 46 V 16 H 61 90 V 15 H 61 V 1 H 90 V 0 H 61 60 V 0.5 15 H 46 V 0 H 45 V 15 15.5 16 30 H 31 V 0 H 30 15 Z M 16,1 H 30 V 30 30.5 31 45 H 16 V 16 15 Z M 1,16 H 15 V 45 45.5 46 60 H 1 Z M 31,31 H 46 75 V 45 H 61 31 Z M 16,46 H 31 60 V 60 H 46 16 Z M 1,61 H 16 45 V 75 H 31 1 Z" />
    </pattern>
    <clipPath
       clipPathUnits="userSpaceOnUse"
       id="clipPath54">
      <path
         id="path54"
         style="stroke-width:0.0999999;stroke-linecap:square;paint-order:markers fill stroke;stop-color:#000000"
         d="m 1691.1994,-792.32001 h 1634.8919 v 92.82806 H 1691.1994 Z" />
    </clipPath>
    <clipPath
       clipPathUnits="userSpaceOnUse"
       id="clipPath5">
      <rect
         style="fill:#000000;stroke:#000000;stroke-width:0;stroke-linejoin:bevel;paint-order:stroke markers fill;stop-color:#000000"
         id="rect5-4"
         width="20"
         height="200"
         x="530"
         y="595" />
    </clipPath>
    <linearGradient
       id="swatch172"
       inkscape:swatch="solid">
      <stop
         style="stop-color:#000000;stop-opacity:1;"
         offset="0"
         id="stop172" />
    </linearGradient>
    <linearGradient
       id="linearGradient169"
       inkscape:collect="always">
      <stop
         style="stop-color:#00002b;stop-opacity:1;"
         offset="0"
         id="stop169" />
      <stop
         style="stop-color:#000000;stop-opacity:1;"
         offset="1"
         id="stop170" />
    </linearGradient>
    <linearGradient
       id="linearGradient12"
       inkscape:collect="always">
      <stop
         style="stop-color:#2600a6;stop-opacity:1;"
         offset="0"
         id="stop12" />
      <stop
         style="stop-color:#2600a6;stop-opacity:0;"
         offset="1"
         id="stop13" />
    </linearGradient>
    <linearGradient
       inkscape:collect="always"
       xlink:href="#linearGradient12"
       id="linearGradient13"
       x1="1045.2662"
       y1="507.76962"
       x2="969.56403"
       y2="31.814262"
       gradientUnits="userSpaceOnUse" />
    <radialGradient
       inkscape:collect="always"
       xlink:href="#linearGradient169"
       id="radialGradient170"
       cx="1847.6348"
       cy="71.240593"
       fx="1847.6348"
       fy="71.240593"
       r="207.18225"
       gradientTransform="matrix(-0.5548324,-0.74853125,0.77815713,-0.57679194,2844.2314,1484.2074)"
       gradientUnits="userSpaceOnUse" />
    <radialGradient
       inkscape:collect="always"
       xlink:href="#linearGradient186"
       id="radialGradient171"
       gradientUnits="userSpaceOnUse"
       gradientTransform="matrix(0.5548324,0.74853125,-0.77815713,0.57679194,-929.38618,-402.33413)"
       cx="1847.6348"
       cy="71.240593"
       fx="1847.6348"
       fy="71.240593"
       r="207.18225" />
  </defs>
  <g
     inkscape:label="Layer 1"
     inkscape:groupmode="layer"
     id="layer1">
    <path
       id="rect12"
       style="opacity:1;mix-blend-mode:normal;fill:url(#pattern185);fill-opacity:1;stroke:none;stroke-width:1.43121;stroke-linecap:round;stroke-linejoin:round;stroke-dasharray:none;stroke-opacity:1"
       d="M 0.51977783,0.70747365 C 0.21426978,1.4504424 -0.09715019,2.1923424 0.02862719,3.0132819 c 0,358.3232281 0,716.6464681 0,1074.9697181 0.3199754,0.4924 0.37874753,1.264 0.87100823,1.572 0.70567328,0.334 1.43931838,0.5137 2.22246118,0.4205 638.2858634,0 1276.5718034,0 1914.8576034,0 0.4932,-0.3195 1.266,-0.3781 1.5746,-0.8696 0.3345,-0.7045 0.5145,-1.4369 0.4212,-2.2188 0,-358.29003 0,-716.58006 0,-1074.870083 -0.32,-0.4923284 -0.3787,-1.26392204 -0.871,-1.57205171 -0.7057,-0.33393742 -1.4393,-0.51365672 -2.2225,-0.42047782 -638.2858,0 -1276.57172,0 -1914.8575861,0 -0.5015454,0.227662 -1.0030907,0.45532411 -1.50463607,0.68298618 z" />
    <path
       style="opacity:1;fill:url(#radialGradient171);fill-opacity:1;stroke:none;stroke-width:2.21;stroke-linecap:round;stroke-linejoin:round;stroke-dasharray:none;stroke-opacity:1"
       d="M 379.00924,1100.258 C 349.31084,910.75344 -11.313664,722.66307 -11.313664,722.66307 l -24.0416,369.10973 z"
       id="path170"
       sodipodi:nodetypes="cccc" />
    <g
       id="g12"
       style="stroke:url(#linearGradient13);stroke-opacity:1">
      <path
         style="opacity:1;fill:none;stroke:url(#linearGradient13);stroke-width:1.51;stroke-linecap:round;stroke-linejoin:round;stroke-dasharray:none;stroke-opacity:1"
         d="m -0.01449498,1100.8224 c 0,0 1431.41879498,-1455.50666 1715.52819498,-1041.105152"
         id="path1"
         sodipodi:nodetypes="cc" />
      <path
         style="opacity:1;fill:none;stroke:url(#linearGradient13);stroke-width:1.51;stroke-linecap:round;stroke-linejoin:round;stroke-dasharray:none;stroke-opacity:1"
         d="m -43.855115,1082.4376 c 0,0 1439.904115,-1466.82034 1724.013515,-1052.418837"
         id="path7"
         sodipodi:nodetypes="cc" />
      <path
         style="opacity:1;fill:none;stroke:url(#linearGradient13);stroke-width:1.51;stroke-linecap:round;stroke-linejoin:round;stroke-dasharray:none;stroke-opacity:1"
         d="m -60.825678,1038.597 c 0,0 1430.004578,-1458.33508 1714.113978,-1043.9335761"
         id="path8"
         sodipodi:nodetypes="cc" />
      <path
         style="opacity:1;fill:none;stroke:url(#linearGradient13);stroke-width:1.51;stroke-linecap:round;stroke-linejoin:round;stroke-dasharray:none;stroke-opacity:1"
         d="m -46.683543,963.64362 c 0,0 1386.163943,-1418.73704 1670.273343,-1004.335535"
         id="path9" />
      <path
         style="opacity:1;fill:none;stroke:url(#linearGradient13);stroke-width:1.51;stroke-linecap:round;stroke-linejoin:round;stroke-dasharray:none;stroke-opacity:1"
         d="m 56.554045,1114.9644 c 0,0 1415.862455,-1414.49433 1699.971855,-1000.09282"
         id="path10"
         sodipodi:nodetypes="cc" />
      <path
         style="opacity:1;fill:none;stroke:url(#linearGradient13);stroke-width:1.51;stroke-linecap:round;stroke-linejoin:round;stroke-dasharray:none;stroke-opacity:1"
         d="m 164.03428,1097.9939 c 0,0 1325.35282,-1285.80096 1592.49162,-983.12232"
         id="path11"
         sodipodi:nodetypes="cc" />
      <path
         style="opacity:1;fill:none;stroke:url(#linearGradient13);stroke-width:1.51;stroke-linecap:round;stroke-linejoin:round;stroke-dasharray:none;stroke-opacity:1"
         d="m 247.47288,1109.3076 c 0,0 1236.25732,-1206.604992 1509.05302,-994.43602"
         id="path12"
         sodipodi:nodetypes="cc" />
    </g>
    <path
       style="opacity:1;fill:url(#radialGradient170);stroke:#06001a;stroke-width:2.21;stroke-linecap:round;stroke-linejoin:round;stroke-dasharray:none;stroke-opacity:1;fill-opacity:1"
       d="m 1535.836,-18.384776 c 29.6984,189.504616 390.3229,377.595016 390.3229,377.595016 l 24.0416,-369.1097349 z"
       id="path13"
       sodipodi:nodetypes="cccc" />
  </g>
</svg>
