<?xml version="1.0" encoding="UTF-8" standalone="no"?>
<!-- Created with Inkscape (http://www.inkscape.org/) -->

<svg
   width="40"
   height="40"
   viewBox="0 0 40 40"
   version="1.1"
   id="svg1"
   xml:space="preserve"
   inkscape:export-filename="icon.png"
   inkscape:export-xdpi="153.60001"
   inkscape:export-ydpi="153.60001"
   inkscape:version="1.4.2 (ebf0e940d0, 2025-05-08)"
   sodipodi:docname="icon.svg"
   xmlns:inkscape="http://www.inkscape.org/namespaces/inkscape"
   xmlns:sodipodi="http://sodipodi.sourceforge.net/DTD/sodipodi-0.dtd"
   xmlns:xlink="http://www.w3.org/1999/xlink"
   xmlns="http://www.w3.org/2000/svg"
   xmlns:svg="http://www.w3.org/2000/svg"><sodipodi:namedview
     id="namedview1"
     pagecolor="#232323"
     bordercolor="#000000"
     borderopacity="0.25"
     inkscape:showpageshadow="2"
     inkscape:pageopacity="0.0"
     inkscape:pagecheckerboard="0"
     inkscape:deskcolor="#d1d1d1"
     inkscape:document-units="px"
     showgrid="false"
     inkscape:zoom="11.313708"
     inkscape:cx="14.407301"
     inkscape:cy="22.98097"
     inkscape:window-width="1920"
     inkscape:window-height="1056"
     inkscape:window-x="0"
     inkscape:window-y="0"
     inkscape:window-maximized="1"
     inkscape:current-layer="layer1"><inkscape:grid
       id="grid34"
       units="px"
       originx="0"
       originy="0"
       spacingx="1"
       spacingy="1"
       empcolor="#0099e5"
       empopacity="0.30196078"
       color="#0099e5"
       opacity="0.14901961"
       empspacing="5"
       enabled="true"
       visible="false" /></sodipodi:namedview><defs
     id="defs1"><linearGradient
       id="linearGradient41"
       inkscape:collect="always"><stop
         style="stop-color:#262735;stop-opacity:1;"
         offset="0"
         id="stop41" /><stop
         style="stop-color:#0b0c0d;stop-opacity:0.95732981;"
         offset="1"
         id="stop42" /></linearGradient><linearGradient
       inkscape:collect="always"
       xlink:href="#linearGradient41"
       id="linearGradient42"
       x1="94.522545"
       y1="125.60654"
       x2="347.43582"
       y2="457.28992"
       gradientUnits="userSpaceOnUse"
       gradientTransform="matrix(0.07573397,0,0,0.07573397,0.6597242,-0.27248204)" /><filter
       inkscape:collect="always"
       style="color-interpolation-filters:sRGB"
       id="filter48"
       x="-0.03346735"
       y="-0.029858651"
       width="1.0768749"
       height="1.0493213"><feGaussianBlur
         inkscape:collect="always"
         stdDeviation="0.9646956"
         id="feGaussianBlur48" /></filter></defs><g
     inkscape:label="Layer 1"
     inkscape:groupmode="layer"
     id="layer1"><rect
       style="fill:#0000ff;fill-opacity:0.381651;stroke:none;stroke-width:0.505844;stroke-linecap:round;stroke-linejoin:bevel;stroke-dasharray:none;stroke-opacity:1;paint-order:fill markers stroke"
       id="rect47"
       width="8.303154"
       height="3.3087752"
       x="28.004681"
       y="32.444942"
       ry="0" /><path
       style="fill:url(#linearGradient42);stroke:none;stroke-width:0.532587;stroke-linecap:round;stroke-linejoin:bevel;stroke-dasharray:none;stroke-opacity:1;paint-order:fill markers stroke"
       d="m 18.888728,37.672646 c -0.482347,-0.0262 -1.10251,-0.03286 -1.378137,-0.01481 -0.372019,0.02435 -0.759387,-0.0098 -1.503424,-0.132209 -0.551254,-0.09077 -1.199605,-0.176433 -1.44078,-0.190391 -1.206801,-0.06984 -1.576279,-0.12386 -1.764712,-0.258038 -0.369027,-0.262771 -0.378889,-0.307761 -0.124555,-0.568226 0.268676,-0.275146 0.301358,-0.516392 0.09002,-0.664423 -0.210407,-0.147375 -0.278404,-0.124348 -0.638515,0.216228 l -0.33174,0.313748 -1.682844,-0.252346 C 9.1884774,35.98339 8.4124139,35.849251 8.389456,35.824094 8.3665009,35.798935 8.302826,35.623312 8.2479498,35.433819 8.1666211,35.15296 8.1632323,35.077705 8.2295961,35.026641 c 0.044774,-0.03446 0.6643361,-0.594098 1.3768059,-1.243655 0.976806,-0.890549 1.2954,-1.216905 1.2954,-1.326953 0,-0.08027 -0.462657,-0.915988 -1.028126,-1.857156 -0.56547,-0.941167 -1.0191608,-1.720296 -1.0082011,-1.731396 0.010964,-0.01111 0.1846781,0.09136 0.3860411,0.227673 0.586664,0.397172 0.958013,0.55584 1.412425,0.603493 0.309968,0.0325 0.482149,0.08874 0.657747,0.214805 0.130824,0.09392 0.508517,0.3588 0.839315,0.588615 l 0.601453,0.417842 0.204744,-0.285099 c 0.112607,-0.156803 0.180223,-0.307619 0.150257,-0.335145 -0.02996,-0.02753 -0.440287,-0.317431 -0.911823,-0.644234 -0.835966,-0.579371 -0.868392,-0.595274 -1.300674,-0.63787 -0.498766,-0.04915 -0.762169,-0.177747 -1.7859751,-0.871953 -0.338107,-0.229257 -0.6468975,-0.416832 -0.6861987,-0.416832 -0.1933324,0 -0.3393478,0.196689 -0.3831875,0.516175 -0.081831,0.596321 -0.00546,0.587086 -1.1122828,0.134438 L 5.9483545,27.974958 4.6221733,28.3191 C 3.8927743,28.508378 3.2853878,28.652637 3.2724265,28.639676 3.259462,28.626712 3.4249318,27.972479 3.640131,27.18582 4.0012156,25.86588 4.0496083,25.735473 4.2673786,25.495529 5.037913,24.646536 4.8996688,23.958611 3.9301668,23.817508 3.7262322,23.787831 3.5595294,23.711967 3.4102926,23.580939 3.0255845,23.243161 2.448189,21.866736 2.2888156,20.907505 l -0.045715,-0.275116 0.3672028,0.04288 c 0.2019605,0.02359 0.9669954,0.121026 1.7000761,0.216532 l 1.3328744,0.173647 0.025546,-0.129344 c 0.014046,-0.07114 0.039691,-0.235054 0.056985,-0.364256 0.029875,-0.223215 0.022671,-0.234909 -0.1447189,-0.234909 -0.4211135,0 -0.5341941,-0.0611 -0.655401,-0.354157 C 4.8616079,19.827902 4.7000967,19.563163 4.5667572,19.394477 4.4334177,19.22579 4.3243227,19.046112 4.3243227,18.995194 c 0,-0.05092 -0.074376,-0.171551 -0.1652828,-0.268074 C 3.5085548,18.036445 3.0488933,15.310886 2.9092311,11.316404 2.838648,9.297514 3.0861022,7.679688 3.8051176,5.459318 4.172117,4.325996 4.4910485,3.5207395 4.964855,2.5311427 l 0.38223,-0.798325 0.2559904,0.1438706 c 0.1407957,0.079131 2.0039224,1.6082262 4.1402836,3.3979944 2.13636,1.789768 3.936522,3.2953853 4.000359,3.3458186 0.105793,0.083574 0.134882,0.071162 0.328425,-0.1400248 C 14.188938,8.353029 14.2845,8.2259579 14.2845,8.1980931 c 0,-0.041619 -1.467675,-1.3048324 -1.811459,-1.5591044 -0.05442,-0.040249 -0.0849,-0.086838 -0.06772,-0.1035299 0.05182,-0.050371 2.225542,-0.4083699 3.163356,-0.5209914 1.214126,-0.1458032 2.954431,-0.1492969 3.419809,-0.00689 0.344586,0.1054647 0.353146,0.1138654 0.522875,0.5132225 0.174363,0.4102587 0.299369,0.5161291 0.567585,0.48069 0.366404,-0.048415 0.367316,-0.7497094 0.0015,-1.1844083 -0.152651,-0.1814254 -0.459963,-1.1155155 -0.591717,-1.7985714 -0.03987,-0.206721 -0.08659,-0.4415211 -0.103793,-0.5217774 -0.03116,-0.1453113 -0.02979,-0.1451135 0.331339,0.04742 0.507544,0.2705956 1.611536,1.1020949 2.17918,1.6413009 0.262709,0.2495465 0.753961,0.8078953 1.091673,1.2407763 0.337712,0.43288 0.955319,1.205816 1.372463,1.7176355 0.75676,0.9285236 0.758237,0.9309805 0.666284,1.1087965 -0.09518,0.184065 -0.121451,0.536348 -0.05325,0.714089 0.06237,0.162538 0.368113,0.2847 0.712535,0.2847 0.255349,0 0.349917,-0.03075 0.47293,-0.153761 C 26.352905,9.902877 26.36205,9.56443 26.18044,9.270579 26.062168,9.0791703 26.058192,9.0440519 26.140617,8.9186523 26.318496,8.6480395 27.937003,7.0122071 28.981332,6.0475304 31.22807,3.9721525 31.383163,3.84825 32.795387,3.0004851 33.518909,2.5661502 34.23475,2.1171598 34.386144,2.0027259 c 0.151394,-0.1144328 0.391003,-0.2394568 0.532463,-0.277832 0.218976,-0.0594 0.289547,-0.052415 0.474858,0.047005 0.280997,0.1507518 0.452912,0.4597543 0.720001,1.2941361 0.257948,0.8058271 0.48652,1.8847465 0.696236,3.286419 0.152636,1.0201595 0.153056,1.0355638 0.05624,2.0718861 -0.399945,4.2812299 -1.267844,7.6183149 -2.436505,9.3683969 -0.543443,0.813808 -0.66339,0.903877 -1.325098,0.995018 -0.30774,0.04239 -0.623731,0.122551 -0.702209,0.178144 -0.143749,0.101836 -0.389778,0.692059 -0.389778,0.935078 0,0.148728 0.110277,0.382079 0.212966,0.450646 0.118275,0.07898 0.473815,0.05234 0.67244,-0.05037 0.104569,-0.05408 0.403288,-0.284225 0.66383,-0.511451 l 0.473712,-0.41314 1.071393,-0.146865 c 0.589266,-0.08079 1.131679,-0.132767 1.20536,-0.115533 0.154085,0.03604 0.523782,0.432904 0.523782,0.562275 0,0.19554 -0.430369,0.484005 -1.773438,1.188692 -1.801579,0.94526 -1.726624,0.733388 -0.871369,2.463016 0.668668,1.352287 1.07874,2.461687 1.07874,2.918414 v 0.284207 l -0.26623,0.03956 c -0.146429,0.02175 -0.788964,0.03053 -1.427857,0.0195 l -1.161626,-0.02006 -0.256848,-0.203589 c -0.191436,-0.151739 -0.319671,-0.203588 -0.50353,-0.203588 -0.238896,0 -0.268019,0.02521 -0.92279,0.798693 -0.459284,0.542555 -0.748936,0.830201 -0.903193,0.896942 -0.124897,0.05403 -1.139011,0.420495 -2.253589,0.814354 -2.434165,0.860162 -2.317666,0.773308 -2.206168,1.644763 0.04045,0.316121 0.112243,0.631146 0.159549,0.700052 0.0473,0.06891 0.424674,0.499581 0.838596,0.957053 1.490265,1.64706 2.648486,3.202299 2.860753,3.841373 0.103793,0.312487 0.103345,0.318445 -0.03093,0.412493 -0.105793,0.0741 -0.131791,0.146456 -0.11634,0.323813 l 0.0199,0.22839 -0.476866,0.125286 c -0.262276,0.06891 -0.553652,0.176864 -0.647507,0.239906 -0.301675,0.202631 -0.858946,0.352043 -1.319073,0.353657 -0.241387,8.46e-4 -0.80517,0.04609 -1.252854,0.100533 -0.914121,0.111166 -4.971769,0.15641 -6.514449,0.07264 z"
       id="path41"
       sodipodi:nodetypes="cccssssscsssssssscssscscsssssccsssssccccsccsssssscscccsccsscscsscccssscsssscsssssssscsssssssccsssssccscssssssssssscsssscc" /><rect
       style="fill:#ff0000;fill-opacity:0.381651;stroke:none;stroke-width:0.505844;stroke-linecap:round;stroke-linejoin:bevel;stroke-dasharray:none;stroke-opacity:1;paint-order:fill markers stroke"
       id="rect47-2"
       width="8.303154"
       height="3.3087752"
       x="1.4474201"
       y="4.0512466"
       ry="0" /><path
       style="fill:none;stroke:#0000e0;stroke-width:1.3;stroke-linecap:butt;stroke-linejoin:round;stroke-dasharray:none;stroke-opacity:1"
       d="M 14.020426,8.4719299 5.9045616,1.6670892 5.1554044,1.3549405 c 0,0 -2.8093374,4.9943787 -2.6220489,9.7390365 0.1872896,4.74466 0.6242972,7.553999 1.6231736,8.115865"
       id="path33" /><path
       style="fill:none;stroke:#0000e0;stroke-width:1.3;stroke-linejoin:round;stroke-dasharray:none;stroke-opacity:1"
       d="M 5.6548425,20.708155 1.7841993,20.208718 c 0,0 0.5618677,3.870642 1.9977517,3.933073 1.4358829,0.06242 -0.062429,1.373454 -0.062429,1.373454 l -0.9988753,3.620925 3.1839166,-0.811587 2.3099002,0.936445 0.1872885,-1.186164 1.186165,0.811586 0.686727,0.374578 0.936445,0.12486 1.685604,1.186164"
       id="path34" /><path
       style="fill:none;stroke:#0000e0;stroke-width:1.3;stroke-linecap:round;stroke-linejoin:round;stroke-dasharray:none;stroke-opacity:1"
       d="M 12.522111,36.065869 11.897815,36.690166 8.0896018,36.128299 7.7150238,34.942134 10.524361,32.382515 8.4641799,28.94888"
       id="path35" /><path
       style="fill:none;stroke:#0000e0;stroke-width:1.3;stroke-linecap:round;stroke-linejoin:bevel;stroke-dasharray:none;stroke-opacity:1;paint-order:fill markers stroke"
       d="m 11.648096,6.3493192 c 0,0 7.866145,-1.7480327 8.240723,0 0.374579,1.7480315 -1.373453,-3.121487 -0.811585,-3.3087767 0.561867,-0.1872885 3.183915,1.9353222 3.620923,2.5596194 0.437009,0.6242971 2.684479,3.3712046 2.684479,3.3712046 0,0 1.186166,1.1861655 -0.06242,0.9364455 C 24.071622,9.658094 31.18861,3.5399807 31.18861,3.5399807 l 2.684478,-1.6231725 c 0,0 1.435884,-1.3734544 2.185041,0.3121486 0.749157,1.685602 1.123734,5.1816671 1.123734,5.1816671 0,0 -0.437007,8.5528711 -3.121486,11.2997801 -2.684477,2.746908 -1.560742,0.499438 -1.560742,0.499438 l 3.745783,-0.499438 c 0,0 1.810462,0.936447 0,1.872892 -1.810462,0.936446 -2.497188,1.311024 -2.497188,1.311024 0,0 2.809336,4.931949 1.373452,4.994379 -1.435883,0.06242 -2.996627,0 -2.996627,0 l -0.561867,-0.499438 -1.435883,1.685603 -4.557371,1.623172 0.12486,1.061306 c 0,0 5.056807,5.244097 3.620925,5.681105"
       id="path36" /><path
       style="display:inline;fill:none;stroke:#c000ff;stroke-width:0.894314;stroke-linecap:round;stroke-linejoin:bevel;stroke-dasharray:none;stroke-opacity:1;paint-order:fill markers stroke"
       d="M 4.9069912,23.402635 8.3002151,22.010542 6.4730949,24.794726 10.040331,22.967605 8.8222508,25.229756"
       id="path37" /><path
       style="display:inline;fill:none;stroke:#c000ff;stroke-width:0.939408;stroke-linecap:round;stroke-linejoin:bevel;stroke-dasharray:none;stroke-opacity:1;paint-order:fill markers stroke"
       d="m 32.860987,23.146743 -3.564322,1.462288 1.919249,-2.924572 -3.747105,1.919251 1.279501,-2.376216"
       id="path38" /><rect
       style="fill:#00ff00;fill-opacity:0.381651;stroke:none;stroke-width:0.369443;stroke-linecap:round;stroke-linejoin:bevel;stroke-dasharray:none;stroke-opacity:1;paint-order:fill markers stroke"
       id="rect47-0"
       width="5.8683939"
       height="2.4971893"
       x="3.9763126"
       y="34.265163"
       ry="0" /><path
       style="fill:none;fill-opacity:1;stroke:#3200ff;stroke-width:0.933;stroke-linecap:round;stroke-linejoin:round;stroke-dasharray:none;stroke-opacity:1;paint-order:fill markers stroke"
       d="m 8.2148145,15.993844 3.9430645,1.704708 -4.2425995,0.799913"
       id="path42"
       sodipodi:nodetypes="ccc" /><path
       style="fill:none;fill-opacity:1;stroke:#3200ff;stroke-width:0.899;stroke-linecap:round;stroke-linejoin:round;stroke-dasharray:none;stroke-opacity:1;paint-order:fill markers stroke"
       d="m 29.508528,15.969563 -4.62143,1.63524 4.80893,0.917944"
       id="path43"
       sodipodi:nodetypes="ccc" /><path
       style="fill:none;fill-opacity:1;stroke:#3200ff;stroke-width:0.641702;stroke-linecap:round;stroke-linejoin:bevel;stroke-dasharray:none;stroke-opacity:1;paint-order:fill markers stroke"
       d="m 16.642474,20.208718 3.745784,-0.06243 -2.185042,0.561868 z"
       id="path44" /><path
       style="fill:none;fill-opacity:1;stroke:#3200ff;stroke-width:0.585105;stroke-linecap:round;stroke-linejoin:bevel;stroke-dasharray:none;stroke-opacity:1;paint-order:fill markers stroke"
       d="m 21.272192,25.591437 c 0,0 -0.227695,5.180044 -1.764631,5.009274 -1.536935,-0.170771 -3.130795,-2.163095 -3.358488,-3.301566 -0.227695,-1.138472 -0.227695,-1.42309 -0.227695,-1.42309"
       id="path45"
       sodipodi:nodetypes="cssc" /><path
       style="fill:none;fill-opacity:1;stroke:#3200ff;stroke-width:0.585105;stroke-linecap:round;stroke-linejoin:bevel;stroke-dasharray:none;stroke-opacity:1;paint-order:fill markers stroke"
       d="m 13.87213,24.965278 c 0,0 0.455389,1.707708 2.106171,0.569236 1.650784,-1.138471 2.049249,-1.480013 2.049249,-1.480013 0,0 3.244642,1.764631 3.700031,0.853855"
       id="path46" /><path
       style="fill:#3200ff;fill-opacity:1;stroke:#0000e0;stroke-width:1.3;stroke-linecap:round;stroke-linejoin:bevel;stroke-dasharray:none;stroke-opacity:1;paint-order:fill markers stroke"
       d="M 9.0260486,29.13617 C 8.8387591,28.449443 7.9023123,27.138419 7.9023123,27.138419"
       id="path47"
       sodipodi:nodetypes="cc" /><rect
       style="fill:#0000ff;fill-opacity:0.381651;stroke:none;stroke-width:0.337127;stroke-linecap:round;stroke-linejoin:bevel;stroke-dasharray:none;stroke-opacity:1;paint-order:fill markers stroke"
       id="rect47-6"
       width="6.3054028"
       height="1.9353215"
       x="34.062931"
       y="3.2453904"
       ry="0" /><path
       style="opacity:0.32563;fill:none;fill-opacity:0.381651;stroke:#0000e0;stroke-width:3.602;stroke-linecap:butt;stroke-linejoin:bevel;stroke-dasharray:1.801, 1.801;stroke-dashoffset:15.4886;stroke-opacity:1;paint-order:fill markers stroke;filter:url(#filter48)"
       d="m 330.02907,121.58966 c 0,0 111.66398,59.55412 92.63974,139.78676"
       id="path48"
       sodipodi:nodetypes="cc"
       transform="matrix(0.07547657,0,0,0.07547657,0.660464,-0.20580245)" /><path
       style="opacity:0.243249;fill:none;fill-opacity:0.381651;stroke:#0000e0;stroke-width:3.602;stroke-linecap:butt;stroke-linejoin:bevel;stroke-dasharray:1.801, 1.801;stroke-dashoffset:15.4886;stroke-opacity:1;paint-order:fill markers stroke;filter:url(#filter48)"
       d="M 57.486264,104.63327 C 54.419723,94.820345 177.32319,162.79701 183.62519,241.52504"
       id="path49"
       sodipodi:nodetypes="cc"
       transform="matrix(-0.07547657,0,0,0.07547657,18.121719,0.6369985)" /></g></svg>
